<svg width="600" height="152" viewBox="0 0 600 152" fill="none" xmlns="http://www.w3.org/2000/svg">
<g clip-path="url(#clip0_2107_68)">
<path d="M234.48 146.23H224.42L223.02 150.97H213.97L224.75 122.28H234.42L245.2 150.97H235.92L234.48 146.23ZM232.64 140.02L229.47 129.71L226.34 140.02H232.64Z" fill="#20438B"/>
<path d="M247.22 122.28H256.08V143.9H269.91V150.96H247.21V122.27L247.22 122.28Z" fill="#20438B"/>
<path d="M273.05 122.28H284.71L289.21 139.74L293.67 122.28H305.32V150.97H298.06V129.09L292.47 150.97H285.9L280.32 129.09V150.97H273.06V122.28H273.05Z" fill="#20438B"/>
<path d="M327.81 146.23H317.75L316.35 150.97H307.3L318.08 122.28H327.75L338.53 150.97H329.25L327.81 146.23ZM325.97 140.02L322.8 129.71L319.67 140.02H325.97Z" fill="#20438B"/>
<path d="M335.51 122.28H344.78L351.24 142.92L357.61 122.28H366.61L355.96 150.97H346.35L335.52 122.28H335.51Z" fill="#20438B"/>
<path d="M369.05 122.28H377.93V150.97H369.05V122.28Z" fill="#20438B"/>
<path d="M380.68 122.28H389.95L396.41 142.92L402.78 122.28H411.78L401.13 150.97H391.52L380.69 122.28H380.68Z" fill="#20438B"/>
<path d="M429.21 146.23H419.15L417.75 150.97H408.7L419.48 122.28H429.15L439.93 150.97H430.65L429.21 146.23ZM427.38 140.02L424.21 129.71L421.08 140.02H427.38Z" fill="#20438B"/>
<path d="M468.09 139.71V136.34L480.24 136.32V146.97C478.37 148.46 476.45 149.58 474.47 150.33C472.49 151.08 470.45 151.45 468.36 151.45C465.54 151.45 462.98 150.85 460.68 149.64C458.38 148.43 456.64 146.69 455.47 144.41C454.3 142.13 453.71 139.58 453.71 136.76C453.71 133.94 454.29 131.36 455.46 128.94C456.63 126.52 458.31 124.72 460.5 123.55C462.69 122.38 465.22 121.79 468.07 121.79C470.14 121.79 472.02 122.13 473.7 122.8C475.38 123.47 476.69 124.41 477.64 125.61C478.59 126.81 479.32 128.38 479.81 130.31L476.39 131.25C475.96 129.79 475.42 128.64 474.79 127.81C474.15 126.97 473.24 126.31 472.05 125.8C470.86 125.3 469.55 125.05 468.1 125.05C466.36 125.05 464.86 125.31 463.6 125.84C462.34 126.37 461.31 127.06 460.54 127.92C459.76 128.78 459.16 129.73 458.73 130.76C458 132.53 457.63 134.46 457.63 136.53C457.63 139.09 458.07 141.23 458.95 142.95C459.83 144.67 461.11 145.95 462.8 146.79C464.48 147.63 466.27 148.04 468.16 148.04C469.8 148.04 471.41 147.72 472.97 147.09C474.54 146.46 475.72 145.78 476.53 145.06V139.72H468.1L468.09 139.71Z" fill="#20438B"/>
<path d="M486.7 150.96V122.27H499.42C501.98 122.27 503.92 122.53 505.25 123.04C506.58 123.56 507.64 124.47 508.44 125.77C509.24 127.07 509.63 128.52 509.63 130.09C509.63 132.13 508.97 133.84 507.65 135.24C506.33 136.64 504.3 137.52 501.54 137.9C502.54 138.38 503.31 138.86 503.83 139.33C504.94 140.35 505.99 141.62 506.98 143.15L511.97 150.96H507.2L503.4 144.99C502.29 143.27 501.38 141.95 500.66 141.04C499.94 140.13 499.3 139.49 498.73 139.12C498.16 138.75 497.59 138.5 497 138.36C496.57 138.27 495.86 138.22 494.89 138.22H490.49V150.96H486.69H486.7ZM490.5 134.94H498.66C500.4 134.94 501.75 134.76 502.73 134.4C503.71 134.04 504.45 133.47 504.96 132.68C505.47 131.89 505.72 131.03 505.72 130.11C505.72 128.75 505.23 127.64 504.24 126.76C503.25 125.88 501.7 125.45 499.57 125.45H490.49V134.94H490.5Z" fill="#20438B"/>
<path d="M515.23 136.99C515.23 132.23 516.51 128.5 519.07 125.81C521.63 123.12 524.93 121.77 528.97 121.77C531.62 121.77 534.01 122.4 536.13 123.67C538.26 124.94 539.88 126.7 540.99 128.96C542.11 131.22 542.66 133.79 542.66 136.66C542.66 139.53 542.07 142.17 540.9 144.47C539.73 146.77 538.06 148.5 535.91 149.68C533.76 150.86 531.44 151.45 528.94 151.45C526.24 151.45 523.83 150.8 521.7 149.49C519.57 148.19 517.96 146.41 516.87 144.15C515.77 141.89 515.23 139.51 515.23 136.99ZM519.14 137.05C519.14 140.51 520.07 143.23 521.93 145.22C523.79 147.21 526.12 148.2 528.93 148.2C531.74 148.2 534.14 147.2 535.98 145.19C537.83 143.18 538.75 140.33 538.75 136.64C538.75 134.3 538.36 132.27 537.57 130.52C536.78 128.78 535.63 127.43 534.11 126.47C532.59 125.51 530.88 125.03 528.99 125.03C526.3 125.03 523.99 125.95 522.05 127.8C520.11 129.65 519.14 132.73 519.14 137.05Z" fill="#20438B"/>
<path d="M567.18 122.28H570.98V138.85C570.98 141.73 570.65 144.02 570 145.72C569.35 147.42 568.17 148.8 566.47 149.86C564.77 150.92 562.53 151.45 559.77 151.45C557.01 151.45 554.88 150.99 553.18 150.06C551.48 149.13 550.25 147.79 549.52 146.04C548.79 144.29 548.42 141.89 548.42 138.85V122.28H552.22V138.83C552.22 141.32 552.45 143.16 552.91 144.34C553.37 145.52 554.17 146.43 555.3 147.07C556.43 147.71 557.81 148.03 559.44 148.03C562.23 148.03 564.22 147.4 565.41 146.13C566.6 144.86 567.19 142.43 567.19 138.83V122.28H567.18Z" fill="#20438B"/>
<path d="M578.1 150.96V122.27H588.92C590.82 122.27 592.28 122.36 593.28 122.54C594.69 122.77 595.87 123.22 596.82 123.88C597.77 124.54 598.54 125.46 599.12 126.65C599.7 127.84 599.99 129.14 599.99 130.56C599.99 133 599.21 135.06 597.66 136.75C596.11 138.44 593.3 139.28 589.25 139.28H581.89V150.94H578.09L578.1 150.96ZM581.9 135.91H589.32C591.77 135.91 593.51 135.45 594.54 134.54C595.57 133.63 596.09 132.34 596.09 130.69C596.09 129.49 595.79 128.46 595.18 127.61C594.57 126.76 593.77 126.19 592.78 125.92C592.14 125.75 590.96 125.67 589.24 125.67H581.9V135.92V135.91Z" fill="#20438B"/>
<path d="M526.41 0.219971C501.17 0.219971 476.57 2.30997 452.54 6.33997L455.84 23.44C475.71 20.09 495.62 18.17 516.37 17.7V82.21H536.1V17.69C556.8 18.16 576.89 20.09 596.71 23.39L600 6.28997C576.09 2.28997 551.53 0.219971 526.41 0.219971Z" fill="#F20024"/>
<path d="M196.46 3.23999H176.7V82.38H196.46V3.23999Z" fill="#F20024"/>
<path d="M0 6.51002L3.3 23.6C23.18 20.26 43.08 18.34 63.84 17.86V82.38H83.57V17.85C104.26 18.32 124.36 20.25 144.16 23.56L147.47 6.46001C123.55 2.45001 99 0.390015 73.88 0.390015C48.64 0.390015 24.03 2.48001 0 6.51002Z" fill="#F20024"/>
<path d="M423.3 3.22998H403.55V82.38H423.3V3.22998Z" fill="#F20024"/>
<path d="M300.04 59.62C277.76 40.39 257.81 18.27 243.94 0L228.6 10.68C244.94 33.41 275.39 64.16 300.05 83.72L300.23 83.57C324.83 64.04 355.18 33.37 371.5 10.68L356.15 0C342.28 18.27 322.34 40.39 300.04 59.62Z" fill="#F20024"/>
</g>
<defs>
<clipPath id="clip0_2107_68">
<rect width="600" height="151.45" fill="white"/>
</clipPath>
</defs>
</svg>

